# xmcd
#
# Track frame offsets:
#	182
#	14502
#	25150
#	36615
#	49672
#	61832
#	75262
#	89160
#	102390
#	115355
#	131302
#	142697
#	155832
#	166625
#	180297
#	193615
#
# Disc length: 2752 seconds
#
# Revision: 0
# Processed by: cddbd v1.5.2PL0 Copyright (c) Steve Scherf et al.
# Submitted via: dBpowerAMP V4.0
#
DISCID=c90abe10
DTITLE=Howlin' Wolf - Howlin' Wolf
DYEAR=1900
DGENRE=R&B
TTITLE0=Smokestack Lightning
TTITLE1=Al night long
TTITLE2=The red rooster
TTITLE3=The little Baby
TTITLE4=Howling for my Baby
TTITLE5=Evil
TTITLE6=I'm leaving you
TTITLE7=Moaning for my Baby
TTITLE8=Spoonful
TTITLE9=Going down slow
TTITLE10=Wang Dang Doodle
TTITLE11=Forty-four
TTITLE12=Shake for me Baby
TTITLE13=No place to go
TTITLE14=Back door man
TTITLE15=I asked for water
EXTD=
EXTT0=
EXTT1=
EXTT2=
EXTT3=
EXTT4=
EXTT5=
EXTT6=
EXTT7=
EXTT8=
EXTT9=
EXTT10=
EXTT11=
EXTT12=
EXTT13=
EXTT14=
EXTT15=
PLAYORDER=
